<mxfile host="app.diagrams.net" modified="2020-04-23T07:00:54.313Z" agent="5.0 (Macintosh; Intel Mac OS X 10_15_3) AppleWebKit/537.36 (KHTML, like Gecko) Chrome/81.0.4044.113 Safari/537.36" etag="iRbPQReEp0bLxBIQPCGH" version="13.0.1" type="github">
  <diagram id="HG6nW6TqvXLmq6wRR5iX" name="Page-1">
    <mxGraphModel dx="946" dy="582" grid="1" gridSize="10" guides="1" tooltips="1" connect="1" arrows="1" fold="1" page="1" pageScale="1" pageWidth="827" pageHeight="1169" math="0" shadow="0">
      <root>
        <mxCell id="0" />
        <mxCell id="1" parent="0" />
        <mxCell id="JiP6PINN3he4KZj3C312-5" value="" style="rounded=0;whiteSpace=wrap;html=1;fillColor=#f9f7ed;strokeColor=#36393d;" vertex="1" parent="1">
          <mxGeometry x="140" y="520" width="470" height="100" as="geometry" />
        </mxCell>
        <mxCell id="JiP6PINN3he4KZj3C312-1" value="MongoDB" style="rounded=0;whiteSpace=wrap;html=1;" vertex="1" parent="1">
          <mxGeometry x="164" y="540" width="120" height="60" as="geometry" />
        </mxCell>
        <mxCell id="JiP6PINN3he4KZj3C312-2" value="" style="shape=hexagon;perimeter=hexagonPerimeter2;whiteSpace=wrap;html=1;" vertex="1" parent="1">
          <mxGeometry x="164" y="100" width="410" height="330" as="geometry" />
        </mxCell>
        <mxCell id="JiP6PINN3he4KZj3C312-3" value="RabbitMQ" style="rounded=0;whiteSpace=wrap;html=1;" vertex="1" parent="1">
          <mxGeometry x="320" y="540" width="120" height="60" as="geometry" />
        </mxCell>
        <mxCell id="JiP6PINN3he4KZj3C312-4" value="Redis" style="rounded=0;whiteSpace=wrap;html=1;" vertex="1" parent="1">
          <mxGeometry x="470" y="540" width="120" height="60" as="geometry" />
        </mxCell>
        <mxCell id="JiP6PINN3he4KZj3C312-6" value="Hobbes Resources" style="text;html=1;strokeColor=none;fillColor=none;align=center;verticalAlign=middle;whiteSpace=wrap;rounded=0;" vertex="1" parent="1">
          <mxGeometry x="315" y="630" width="130" height="20" as="geometry" />
        </mxCell>
        <mxCell id="JiP6PINN3he4KZj3C312-7" value="DEP" style="text;html=1;strokeColor=none;fillColor=none;align=center;verticalAlign=middle;whiteSpace=wrap;rounded=0;" vertex="1" parent="1">
          <mxGeometry x="304" y="440" width="130" height="20" as="geometry" />
        </mxCell>
      </root>
    </mxGraphModel>
  </diagram>
</mxfile>
